<svg xmlns="http://www.w3.org/2000/svg" xmlns:xlink="http://www.w3.org/1999/xlink" id="body_1" width="200" height="59"><g><path fill="none" stroke="none" d="M0 0L1024 0L1024 300L0 300L0 0z" transform="matrix(0.1953125 0 0 0.1966667 0 0) matrix(1 0 0 1 0 0)"/><path fill="#000" fill-rule="nonzero" stroke="none" d="M445 201.5C 445 220.554 429.554 236 410.5 236L410.5 236L215.5 236C 196.446 236 181 220.554 181 201.5C 181 182.446 196.446 167 215.5 167L215.5 167L410.5 167C 429.554 167 445 182.446 445 201.5z" transform="matrix(0.1953125 0 0 0.1966667 0 0) matrix(3.77 0 0 3.77 -672.75 -609.655)"/><text style="fill:#fff;font-family:Times New Roman;font-weight:700" x="-134.54" y="-11.29" font-size="45" transform="matrix(0.1953125 0 0 0.1966667 0 0) matrix(1.88 0 0 1.88 602.87 150)">Download for</text><text style="fill:#fff;font-family:Times New Roman;font-weight:700" x="-108.97" y="39.56" font-size="45" transform="matrix(0.1953125 0 0 0.1966667 0 0) matrix(1.88 0 0 1.88 602.87 150)">Arch Linux</text><path fill="#FFF" fill-rule="nonzero" stroke="none" d="M11.39023 0.60509C 10.37566 3.09168 9.764285 4.7185 8.63513 7.13162C 9.327842 7.866315 10.17799 8.720834 11.55816 9.685557C 10.07391 9.075061 9.061952 8.461942 8.305392 7.826082C 6.860495 10.84182 4.595188 15.13803 -0.000148 23.39459C 3.612098 21.30947 6.411807 20.02463 9.020845 19.53308C 8.908891 19.05203 8.845043 18.52987 8.849415 17.98585L8.849415 17.98585L8.852915 17.8704C 8.91064 15.55611 10.11414 13.77623 11.53979 13.8978C 12.96545 14.01763 14.07362 15.99343 14.01764 18.30684C 14.00714 18.74241 13.95729 19.16136 13.87157 19.5497C 16.45262 20.05436 19.22347 21.33658 22.78586 23.39372C 22.08353 22.10101 21.45641 20.93512 20.85729 19.82433C 19.91356 19.09314 18.93047 18.14153 16.92405 17.11121C 18.30335 17.46981 19.29082 17.88264 20.0605 18.34532C 13.97041 7.010922 13.47886 5.503924 11.39023 0.60509zM22.89781 21.36019L22.89781 20.73658L22.66429 20.73658L22.66429 20.65261L23.2258 20.65261L23.2258 20.73658L22.9914 20.73658L22.9914 21.36019L22.89781 21.36019zM23.32289 21.36019L23.32289 20.65261L23.46458 20.65261L23.63163 21.15378C 23.64738 21.20101 23.65875 21.23599 23.66574 21.25961C 23.67361 21.23424 23.68586 21.19576 23.70423 21.14591L23.70423 21.14591L23.87303 20.65261L23.99985 20.65261L23.99985 21.36019L23.90889 21.36019L23.90889 20.76719L23.70248 21.36019L23.61851 21.36019L23.41385 20.75757L23.41385 21.36019L23.32289 21.36019" transform="matrix(0.1953125 0 0 0.1966667 0 0) matrix(9 0 0 9 122 42)"/></g></svg>