<?xml version="1.0" standalone="no"?>
<!DOCTYPE svg PUBLIC "-//W3C//DTD SVG 1.0//EN" "http://www.w3.org/TR/2001/REC-SVG-20010904/DTD/svg10.dtd">
<svg xmlns="http://www.w3.org/2000/svg" xmlns:xlink="http://www.w3.org/1999/xlink" id="body_1" width="200" height="59">

<g transform="matrix(0.1953125 0 0 0.1966667 0 0)">
	<g transform="matrix(1 0 0 1 0 0)">
	</g>
    <path transform="matrix(1 0 0 1 0 0)"  d="M0 0L1024 0L1024 300L0 300L0 0z" stroke="none" fill="none" />
	<g transform="matrix(3.77 0 0 3.77 -672.75 -609.655)">
	</g>
    <path transform="matrix(3.77 0 0 3.77 -672.75 -609.655)"  d="M445 201.5C 445 220.554 429.554 236 410.5 236L410.5 236L215.5 236C 196.446 236 181 220.554 181 201.5C 181 182.446 196.446 167 215.5 167L215.5 167L410.5 167C 429.554 167 445 182.446 445 201.5z" stroke="none" fill="#000000" fill-rule="nonzero" />
	<text transform="matrix(1.88 0 0 1.88 612.35 145.02)" x="0" y="0" style="fill:#FFFFFF;font-family:Times New Roman;font-weight:bold;" font-size="45">

	</text>
	<text transform="matrix(1.88 0 0 1.88 612.35 145.02)" x="-134.54" y="-11.29" style="fill:#FFFFFF;font-family:Times New Roman;font-weight:bold;" font-size="45">
Download for
	</text>
	<text transform="matrix(1.88 0 0 1.88 612.35 145.02)" x="116.6514" y="-11.29" style="fill:#FFFFFF;font-family:Times New Roman;font-weight:bold;" font-size="45">

	</text>
	<text transform="matrix(1.88 0 0 1.88 612.35 145.02)" x="-70.28" y="39.56" style="fill:#FFFFFF;font-family:Times New Roman;font-weight:bold;" font-size="45">
Debian
	</text>
	<g transform="matrix(8.04 0 0 8.04 108.01 53.52)">
	</g>
    <path transform="matrix(8.04 0 0 8.04 108.01 53.52)"  d="M13.88 12.68C 13.48 12.68 13.96 12.88 14.48 12.96C 14.62 12.86 14.75 12.74 14.87 12.63C 14.54506 12.70145 14.21049 12.71835 13.88 12.68M16.02 12.15C 16.25 11.82 16.42 11.46 16.49 11.09C 16.43 11.36 16.29 11.59 16.16 11.82C 15.41 12.29 16.09 11.55 16.16 11.26C 15.36 12.27 16.05 11.86 16.02 12.15M16.8 10.1C 16.85 9.38 16.66 9.6 16.6 9.88C 16.67 9.92 16.73 10.38 16.8 10.1M12.38 0.31C 12.58 0.35 12.83 0.38 12.8 0.43C 13.03 0.38 13.08 0.33 12.37 0.31M12.8 0.43L12.65 0.46L12.79 0.45L12.79 0.43L13.88 12.68zM19.42 10.37C 19.44 11.01 19.22 11.32 19.04 11.87L19.04 11.87L18.69 12.05C 18.41 12.59 18.72 12.4 18.52 12.83C 18.08 13.22 17.18 14.05 16.9 14.13C 16.7 14.13 17.04 13.88 17.09 13.79C 16.5 14.19 16.61 14.39 15.72 14.64L15.72 14.64L15.69 14.58C 13.47 15.62 10.39 13.56 10.44 10.74C 10.41 10.91 10.37 10.87 10.32 10.94C 10.19538 9.471257 10.99136 8.078309 12.32 7.44C 13.54482 6.824038 15.02103 7.014006 16.05 7.92C 15.40159 7.07886 14.39179 6.596235 13.33 6.62C 12.15 6.63 11.05 7.38 10.68 8.19C 10.08 8.57 10.01 9.66 9.75 9.85C 9.39 12.45 10.41 13.57 12.13 14.89C 12.4 15.08 12.21 15.1 12.25 15.24C 11.66561 14.96273 11.14474 14.56783 10.72 14.08C 10.95 14.41 11.19 14.74 11.52 14.99C 10.97 14.81 10.25 13.69 10.04 13.64C 10.97 15.3 13.82 16.56 15.3 15.94C 14.51259 15.99585 13.72176 15.90081 12.97 15.66C 12.64 15.5 12.2 15.15 12.27 15.09C 14.24114 15.91904 16.50855 15.59622 18.17 14.25C 18.61 13.9 19.1 13.31 19.24 13.3C 19.04 13.62 19.28 13.46 19.12 13.74C 19.56 13.02 18.92 13.44 19.58 12.5L19.58 12.5L19.82 12.83C 19.73 12.23 20.56 11.51 20.48 10.57C 20.67 10.27 20.68 10.87 20.48 11.54C 20.77 10.8 20.56 10.69 20.63 10.08C 20.71 10.28 20.81 10.5 20.86 10.71C 20.68 10.01 21.06 9.51 21.14 9.11C 21.05 9.06 20.86 9.41 20.82 8.58C 20.82 8.21 20.92 8.38 20.96 8.3C 20.88 8.25 20.7 7.98 20.58 7.44C 20.66 7.31 20.8 7.77 20.92 7.78C 20.84 7.36 20.72 7.03 20.72 6.7C 20.38 6.02 20.6 6.8 20.32 6.4C 19.98 5.31 20.62 6.15 20.66 5.66C 21.2 6.43 21.5 7.62 21.64 8.12C 21.54 7.52 21.36 6.92 21.15 6.36C 21.31 6.43 20.89 5.12 21.36 5.99C 20.73763 4.117272 19.43022 2.549098 17.7 1.6C 17.88 1.77 18.12 1.99 18.03 2.02C 17.28 1.57 17.41 1.54 17.3 1.35C 16.69 1.1 16.65 1.37 16.24 1.35C 15.08 0.73 14.86 0.8 13.8 0.4L13.8 0.4L13.85 0.63C 13.08 0.38 12.95 0.73 12.12 0.63C 12.07 0.59 12.39 0.49 12.65 0.45C 11.91 0.55 11.95 0.31 11.22 0.48C 11.39 0.35 11.58 0.27 11.77 0.16C 11.17 0.2 10.33 0.51 10.59 0.23C 9.6 0.68 7.85 1.3 6.87 2.22L6.87 2.22L6.84 2C 6.39 2.54 4.88 3.61 4.76 4.31L4.76 4.31L4.63 4.34C 4.4 4.74 4.25 5.19 4.06 5.6C 3.76 6.12 3.61 5.8 3.66 5.88C 3.06 7.1 2.76 8.13 2.5 8.98C 2.68 9.25 2.5 10.63 2.57 11.74C 2.27 17.2 6.41 22.51 10.93 23.74C 11.6 23.97 12.58 23.97 13.42 23.99C 12.43 23.71 12.3 23.84 11.34 23.5C 10.64 23.18 10.49 22.8 10 22.37L10 22.37L10.2 22.72C 9.23 22.38 9.63 22.3 8.84 22.05L8.84 22.05L9.05 21.78C 8.74 21.75 8.22 21.25 8.08 20.97L8.08 20.97L7.74 20.98C 7.33 20.48 7.11 20.11 7.13 19.82L7.13 19.82L7.02 20.02C 6.89 19.81 5.5 18.12 6.22 18.51C 6.09 18.39 5.91 18.31 5.72 17.96L5.72 17.96L5.86 17.79C 5.51 17.35 5.22 16.77 5.24 16.59C 5.44 16.83 5.56 16.89 5.69 16.92C 4.81 14.75 4.76 16.8 4.09 14.72L4.09 14.72L4.24 14.7C 4.14 14.54 4.06 14.36 3.98 14.19L3.98 14.19L4.04 13.59C 3.41 12.85 3.86 10.49 3.95 9.19C 4.02 8.65 4.48 8.09 4.83 7.21L4.83 7.21L4.62 7.17C 5.02 6.46 6.96 4.3 7.86 4.41C 8.29 3.86 7.77 4.41 7.68 4.27C 8.64 3.28 8.94 3.57 9.58 3.39C 10.28 2.99 8.98 3.55 9.31 3.24C 10.51 2.94 10.16 2.54 11.73 2.39C 11.89 2.49 11.34 2.53 11.21 2.65C 12.21 2.16 14.36 2.28 15.77 2.92C 17.4 3.69 19.23 5.93 19.3 8.05L19.3 8.05L19.38 8.07C 19.34 8.92 19.51 9.89 19.21 10.78L19.21 10.78L19.41 10.36zM9.54 13.23L9.49 13.51C 9.75 13.86 9.96 14.24 10.29 14.52C 10.05 14.05 9.87 13.86 9.54 13.22M10.16 13.2C 10.02 13.05 9.94 12.86 9.85 12.68C 9.93 13 10.11 13.28 10.28 13.56L10.28 13.56L10.16 13.2zM21.1 10.82L21.03 10.97C 20.93 11.73 20.69 12.48 20.34 13.18C 20.74 12.45 20.99 11.64 21.09 10.82M12.45 0.12C 12.72 0.02 13.11 0.07 13.4 0C 13.03 0.03 12.66 0.05 12.3 0.1L12.3 0.1L12.45 0.12zM3.01 5.14C 3.08 5.71 2.58 5.94 3.12 5.56C 3.42 4.9 3.01 5.38 3.02 5.14M2.38 7.8C 2.5 7.41 2.53 7.18 2.58 6.96C 2.23 7.4 2.41 7.49 2.38 7.79" stroke="none" fill="#FFFFFF" fill-rule="nonzero" />
</g>
</svg>