<?xml version="1.0" standalone="no"?>
<!DOCTYPE svg PUBLIC "-//W3C//DTD SVG 1.0//EN" "http://www.w3.org/TR/2001/REC-SVG-20010904/DTD/svg10.dtd">
<svg xmlns="http://www.w3.org/2000/svg" xmlns:xlink="http://www.w3.org/1999/xlink" id="body_1" width="200" height="59">

<g transform="matrix(0.1953125 0 0 0.1966667 0 0)">
	<g transform="matrix(1 0 0 1 0 0)">
	</g>
    <path transform="matrix(1 0 0 1 0 0)"  d="M0 0L1024 0L1024 300L0 300L0 0z" stroke="none" fill="none" />
	<g transform="matrix(3.77 0 0 3.77 -672.75 -609.655)">
	</g>
    <path transform="matrix(3.77 0 0 3.77 -672.75 -609.655)"  d="M445 201.5C 445 220.554 429.554 236 410.5 236L410.5 236L215.5 236C 196.446 236 181 220.554 181 201.5C 181 182.446 196.446 167 215.5 167L215.5 167L410.5 167C 429.554 167 445 182.446 445 201.5z" stroke="none" fill="#000000" fill-rule="nonzero" />
	<text transform="matrix(1.88 0 0 1.88 602.87 150)" x="0" y="0" style="fill:#FFFFFF;font-family:Times New Roman;font-weight:bold;" font-size="45">

	</text>
	<text transform="matrix(1.88 0 0 1.88 602.87 150)" x="-140.14" y="-11.29" style="fill:#FFFFFF;font-family:Times New Roman;font-weight:bold;" font-size="45">
Download for
	</text>
	<text transform="matrix(1.88 0 0 1.88 602.87 150)" x="111.0514" y="-11.29" style="fill:#FFFFFF;font-family:Times New Roman;font-weight:bold;" font-size="45">

	</text>
	<text transform="matrix(1.88 0 0 1.88 602.87 150)" x="-87.98" y="39.56" style="fill:#FFFFFF;font-family:Times New Roman;font-weight:bold;" font-size="45">
FreeBSD
	</text>
	<g transform="matrix(6.24 0 0 6.24 153.01 75.12)">
	</g>
    <path transform="matrix(6.24 0 0 6.24 153.01 75.12)"  d="M23.725 0.588C 24.998 1.86 21.471 7.45 20.875 8.046C 20.278 8.642 18.764 8.094 17.492 6.822C 16.22 5.55 15.672 4.035 16.268 3.439C 16.864 2.843 22.454 -0.684 23.725 0.589L23.725 0.589L23.725 0.588zM5.885 1.934C 3.943 0.832 1.18 -0.394 0.3 0.485C -0.59 1.375 0.68 4.202 1.794 6.148C 2.784 4.425 4.194 2.974 5.885 1.934zM21.785 7.608C 21.964 8.214 21.932 8.715 21.642 9.005C 20.964 9.683 19.134 8.961 17.485 7.391C 17.36798 7.286577 17.25393 7.178867 17.143 7.068C 16.546 6.471 16.083 5.836 15.785 5.251C 15.207 4.215 15.063 3.299 15.5 2.863C 15.738 2.625 16.118 2.56 16.583 2.643C 16.886 2.452 17.243 2.238 17.635 2.02C 15.98943 1.162368 14.16065 0.7159802 12.305 0.719C 5.927 0.719 0.757 5.889 0.757 12.267C 0.757 18.644 5.927 23.815 12.305 23.815C 18.683 23.815 23.854 18.645 23.854 12.267C 23.854 10.207 23.314 8.276 22.369 6.601C 22.18314 6.941698 21.98841 7.277479 21.785 7.608z" stroke="none" fill="#FFFFFF" fill-rule="nonzero" />
</g>
</svg>