<svg xmlns="http://www.w3.org/2000/svg" xmlns:xlink="http://www.w3.org/1999/xlink" id="body_1" width="200" height="59"><g><path fill="none" stroke="none" d="M0 0L1024 0L1024 300L0 300L0 0z" transform="matrix(0.1953125 0 0 0.1966667 0 0) matrix(1 0 0 1 0 0)"/><path fill="#000" fill-rule="nonzero" stroke="none" d="M445 201.5C 445 220.554 429.554 236 410.5 236L410.5 236L215.5 236C 196.446 236 181 220.554 181 201.5C 181 182.446 196.446 167 215.5 167L215.5 167L410.5 167C 429.554 167 445 182.446 445 201.5z" transform="matrix(0.1953125 0 0 0.1966667 0 0) matrix(3.77 0 0 3.77 -672.75 -609.655)"/><text style="fill:#fff;font-family:Times New Roman;font-weight:700" x="-140.14" y="-11.29" font-size="45" transform="matrix(0.1953125 0 0 0.1966667 0 0) matrix(1.88 0 0 1.88 602.87 150)">Download for</text><text style="fill:#fff;font-family:Times New Roman;font-weight:700" x="-72.94" y="39.56" font-size="45" transform="matrix(0.1953125 0 0 0.1966667 0 0) matrix(1.88 0 0 1.88 602.87 150)">Gentoo</text><path fill="#FFF" fill-rule="nonzero" stroke="none" d="M9.956 0.097C 9.536793 0.09913222 9.11856 0.1376097 8.706 0.212C 4.397 1 1.365 4.73 1.107 7.186C 0.982 8.391 1.632 9.294 1.99 9.692C 2.959 10.768 4.89 11.59 6.131 12.272C 4.336 13.802 3.513 14.549 2.702 15.4C 1.488 16.674 0.635 18.076 0.632 19.08C 0.632 19.403 0.579 20.435 1 21.25C 1.158 21.556 1.608 22.577 2.964 23.342C 3.831 23.832 5.066 24.012 6.274 23.839C 10.016 23.305 15.027 20.132 18.602 17.177C 20.881 15.293 22.547 13.468 23.028 12.57C 23.416 11.845 23.459 10.544 23.234 9.727C 22.594 7.409 17.394 2.66 13.143 0.749C 12.13865 0.3089695 11.05246 0.08675561 9.956 0.097zM9.949 0.164C 11.09805 0.1506112 12.2342 0.4071603 13.266 0.913C 16.699 2.6 22.499 7.343 22.927 9.727C 23.457 12.675 13.075 20.656 6.76 21.901C 4.31 22.382 2.221 22.514 1.268 19.926C 0.442 17.683 2.044 16.042 4.403 13.886C 5.383 12.991 6.163 12.322 7.338 11.33C 7.403 11.262 1.678 9.288 1.496 7.022C 1.307 4.693 4.995 0.394 9.716 0.172C 9.794 0.168 9.871 0.165 9.949 0.164zM9.838 0.68C 9.670287 0.6828126 9.502785 0.6931564 9.336 0.711C 7.017 0.955 6.573 1.254 4.472 2.843C 3.768 3.376 2.472 4.672 2.141 6.209C 2.014 6.795 2.164 7.3 2.585 7.655C 3.935 8.79 6.195 9.711 8.05 10.602C 8.593 10.862 8.234 11.335 7.358 12.094C 5.148 14.007 2.16 16.336 1.951 18.111C 1.853 18.947 2.139 20.083 3.154 20.665C 4.34 21.344 6.801 20.901 8.445 20.289C 10.847 19.394 14.002 17.42 16.507 15.48C 19.111 13.462 21.533 10.9 21.653 10.482C 21.8 9.969 21.785 9.494 21.501 8.949C 21.056 8.094 20.46 7.458 19.82 6.746C 18.102 4.936 16.286 3.345 14.112 2.126C 12.689 1.328 11.422 0.656 9.838 0.68zM10.904 4.274C 11.446 4.274 12.071 4.445 12.742 4.77C 14.417 5.58 16.137 7.707 12.727 8.931C 11.8 9.264 8.858 8.113 8.948 6.543C 9.037 4.985 9.795 4.273 10.904 4.274zM11.187 5.63C 10.872 5.628 10.616 5.708 10.498 5.89C 9.946 6.745 10.198 7.351 10.709 7.738C 10.899 7.284 12.847 7.78 12.839 8.206C 12.859 8.196 12.879 8.186 12.894 8.174C 14.584 6.902 12.426 5.638 11.187 5.63z" transform="matrix(0.1953125 0 0 0.1966667 0 0) matrix(6.62 0 0 6.62 142.79 70.56)"/></g></svg>