<?xml version="1.0" standalone="no"?>
<!DOCTYPE svg PUBLIC "-//W3C//DTD SVG 1.0//EN" "http://www.w3.org/TR/2001/REC-SVG-20010904/DTD/svg10.dtd">
<svg xmlns="http://www.w3.org/2000/svg" xmlns:xlink="http://www.w3.org/1999/xlink" id="body_1" width="200" height="59">

<g transform="matrix(0.1953125 0 0 0.1966667 0 0)">
	<g transform="matrix(1 0 0 1 0 0)">
	</g>
    <path transform="matrix(1 0 0 1 0 0)"  d="M0 0L1024 0L1024 300L0 300L0 0z" stroke="none" fill="none" />
	<g transform="matrix(3.77 0 0 3.77 -672.75 -609.655)">
	</g>
    <path transform="matrix(3.77 0 0 3.77 -672.75 -609.655)"  d="M445 201.5C 445 220.554 429.554 236 410.5 236L410.5 236L215.5 236C 196.446 236 181 220.554 181 201.5C 181 182.446 196.446 167 215.5 167L215.5 167L410.5 167C 429.554 167 445 182.446 445 201.5z" stroke="none" fill="#000000" fill-rule="nonzero" />
	<text transform="matrix(1.88 0 0 1.88 602.87 150)" x="0" y="0" style="fill:#FFFFFF;font-family:Times New Roman;font-weight:bold;" font-size="45">

	</text>
	<text transform="matrix(1.88 0 0 1.88 602.87 150)" x="-134.54" y="-11.29" style="fill:#FFFFFF;font-family:Times New Roman;font-weight:bold;" font-size="45">
Download for
	</text>
	<text transform="matrix(1.88 0 0 1.88 602.87 150)" x="116.6514" y="-11.29" style="fill:#FFFFFF;font-family:Times New Roman;font-weight:bold;" font-size="45">

	</text>
	<text transform="matrix(1.88 0 0 1.88 602.87 150)" x="-105.05" y="39.56" style="fill:#FFFFFF;font-family:Times New Roman;font-weight:bold;" font-size="45">
Slackware
	</text>
	<g transform="matrix(7.63 0 0 7.63 124 56.76139)">
	</g>
    <path transform="matrix(7.63 0 0 7.63 124 56.76139)"  d="M12.924 1.453C 12.34 1.443 11.673 1.453 11.439 1.48C 8.979 1.762 7.301 2.78 6.686 4.371C 6.468 4.923 6.412 5.373 6.443 6.143C 6.491 7.352 6.862 8.147 7.705 8.885C 8.93 9.945 10.685 10.393 13.703 10.393C 16.44 10.393 17.413 10.806 17.619 12.068C 17.932 13.935 16.049 15.138 13.205 14.895C 11.327 14.735 9.709 13.983 8.982 12.928C 8.854198 12.72656 8.73574 12.51934 8.627 12.307C 8.245 11.548 7.987 11.33 7.451 11.33C 7.021 11.335 6.719 11.495 6.533 11.824L6.533 11.824L6.4 12.063L6.4 16.093L6.537 16.39C 6.702 16.734 6.937 16.936 7.281 17.02C 7.631 17.11 8.075 16.984 8.701 16.618L8.701 16.618L9.201 16.328L10.027 16.513C 11.847 16.916 12.777 17.036 14.092 17.036C 15.195 17.041 15.64 16.99 16.547 16.751C 17.671 16.454 18.521 15.966 19.264 15.181C 20.064 14.337 20.414 13.328 20.361 12.034C 20.292 10.406 19.666 9.336 18.361 8.62C 17.401 8.095 16.069 7.83 13.984 7.74C 11.942 7.654 11.19 7.585 10.469 7.42C 9.959 7.299 9.684 7.17 9.393 6.905C 8.74 6.316 8.803 5.15 9.529 4.423C 10.171 3.786 11.04 3.495 12.303 3.495C 13.735 3.5 14.696 3.765 15.715 4.45C 15.9 4.577 16.436 5.07 16.908 5.542C 17.794 6.444 18.043 6.624 18.414 6.624C 18.658 6.624 19.004 6.461 19.146 6.28C 19.406 5.951 19.449 5.65 19.449 4.08C 19.449 2.419 19.406 2.17 19.072 1.798C 18.685 1.373 18.224 1.378 17.322 1.829L17.322 1.829L16.732 2.126L16.102 1.956C 14.606 1.564 14.064 1.479 12.924 1.452L12.924 1.452L12.924 1.453zM0 14L0 23L24 23L24 22L1 22L1 14L0 14z" stroke="none" fill="#FFFFFF" fill-rule="nonzero" />
</g>
</svg>