<svg xmlns="http://www.w3.org/2000/svg" xmlns:xlink="http://www.w3.org/1999/xlink" id="body_1" width="200" height="59"><g><path fill="none" stroke="none" d="M0 0L1024 0L1024 300L0 300L0 0z" transform="matrix(0.1953125 0 0 0.1966667 0 0) matrix(1 0 0 1 0 0)"/><path fill="#000" fill-rule="nonzero" stroke="none" d="M445 201.5C 445 220.554 429.554 236 410.5 236L410.5 236L215.5 236C 196.446 236 181 220.554 181 201.5C 181 182.446 196.446 167 215.5 167L215.5 167L410.5 167C 429.554 167 445 182.446 445 201.5z" transform="matrix(0.1953125 0 0 0.1966667 0 0) matrix(3.77 0 0 3.77 -672.75 -609.655)"/><text style="fill:#fff;font-family:Times New Roman;font-weight:700" x="-156.61" y="-11.29" font-size="45" transform="matrix(0.1953125 0 0 0.1966667 0 0) matrix(1.88 0 0 1.88 601.87 145.02)">Download Snap</text><text style="fill:#fff;font-family:Times New Roman;font-weight:700" x="-87.59" y="39.56" font-size="45" transform="matrix(0.1953125 0 0 0.1966667 0 0) matrix(1.88 0 0 1.88 601.87 145.02)">Package</text><path fill="#FFF" fill-rule="nonzero" stroke="none" d="M13.804 13.367L13.804 5.69L19.096 8.052L13.804 13.367zM3.701 23.514L10.191 11.294L13.038 14.137L3.7 23.514zM0 0.486L13.355 5.334L13.355 13.818L0 0.486zM21.803 5.334L14.11 5.334L24 9.748z" transform="matrix(0.1953125 0 0 0.1966667 0 0) matrix(7.12 0 0 7.12 106.03 64.56)"/></g></svg>