<svg xmlns="http://www.w3.org/2000/svg" xmlns:xlink="http://www.w3.org/1999/xlink" id="body_1" width="150" height="44"><g><path fill="none" stroke="none" d="M0 0L1024 0L1024 300L0 300L0 0z" transform="matrix(0.1464844 0 0 0.1466667 0 0) matrix(1 0 0 1 0 0)"/><path fill="#000" fill-rule="nonzero" stroke="none" d="M445 201.5C 445 220.554 429.554 236 410.5 236L410.5 236L215.5 236C 196.446 236 181 220.554 181 201.5C 181 182.446 196.446 167 215.5 167L215.5 167L410.5 167C 429.554 167 445 182.446 445 201.5z" transform="matrix(0.1464844 0 0 0.1466667 0 0) matrix(3.77 0 0 3.77 -672.75 -609.655)"/><text style="fill:#fff;font-family:Times New Roman;font-weight:700" x="-175.51" y="-11.29" font-size="45" transform="matrix(0.1464844 0 0 0.1466667 0 0) matrix(1.88 0 0 1.88 601.87 145.02)">Download Debian</text><text style="fill:#fff;font-family:Times New Roman;font-weight:700" x="-87.59" y="39.56" font-size="45" transform="matrix(0.1464844 0 0 0.1466667 0 0) matrix(1.88 0 0 1.88 601.87 145.02)">Package</text><path fill="#FFF" fill-rule="nonzero" stroke="none" d="M146.508 129.619C 147.323 128.983 148.062 128.339 148.721 127.713C 146.884 128.163 145.014 128.173 143.131 128.001C 140.872 128.032 143.559 129.165 146.508 129.619z" transform="matrix(0.1464844 0 0 0.1466667 0 0) matrix(0.56 0 0 0.56 85.77998 61.23999)"/><path fill="#FFF" fill-rule="nonzero" stroke="none" d="M155.259 124.978C 156.604 123.121 157.585 121.088 157.931 118.985C 157.629 120.484 156.816 121.778 156.05 123.143C 151.826 125.802 155.653 121.564 156.048 119.953C 151.505 125.67 155.423 123.381 155.259 124.978z" transform="matrix(0.1464844 0 0 0.1466667 0 0) matrix(0.56 0 0 0.56 85.77998 61.23999)"/><path fill="#FFF" fill-rule="nonzero" stroke="none" d="M159.735 113.33C 160.008 109.261 158.934 110.547 158.573 112.1C 158.994 112.319 159.327 114.968 159.735 113.33z" transform="matrix(0.1464844 0 0 0.1466667 0 0) matrix(0.56 0 0 0.56 85.77999 61.23999)"/><path fill="#FFF" fill-rule="nonzero" stroke="none" d="M134.563 57.715C 135.769 57.931 137.168 58.097 136.972 58.385C 138.291 58.096 138.591 57.83 134.563 57.715z" transform="matrix(0.1464844 0 0 0.1466667 0 0) matrix(0.56 0 0 0.56 85.77998 61.24)"/><path fill="#FFF" fill-rule="nonzero" stroke="none" d="M0.37 0.02L0.43 -0.09L-0.43 0.09L0.37 0.02" transform="matrix(0.1464844 0 0 0.1466667 0 0) matrix(0.56 0 0 0.56 162.248 93.9832)"/><path fill="#FFF" fill-rule="nonzero" stroke="none" d="M133.836 142.574C 130.584 141.051 127.607 138.753 125.159 135.939C 126.458 137.84 127.86 139.689 129.672 141.141C 126.607 140.102 122.511 133.712 121.316 133.452C 126.601 142.914 142.757 150.046 151.217 146.507C 147.303 146.652 142.33 146.587 137.931 144.962C 136.239 144.091 133.996 142.37 133.975 141.803C 133.891 142.023 133.749 142.243 133.836 142.574z" transform="matrix(0.1464844 0 0 0.1466667 0 0) matrix(0.56 0 0 0.56 85.77998 61.23999)"/><path fill="#FFF" fill-rule="nonzero" stroke="none" d="M181.674 88.088C 184.697 92.467 186.421 99.255 187.212 102.066C 186.608 98.638 185.633 95.318 184.442 92.105C 185.36 92.491 182.963 85.052 185.635 89.979C 182.781 79.477 173.42 69.665 164.808 65.06C 165.862 66.024 167.192 67.235 166.714 67.425C 162.431 64.875 163.185 64.676 162.571 63.599C 159.082 62.179 158.853 63.713 156.542 63.602C 149.966 60.114 148.698 60.485 142.647 58.3L142.647 58.3L142.922 59.586C 138.565 58.135 137.846 60.137 133.137 59.591C 132.85 59.367 134.646 58.781 136.123 58.566C 131.911 59.122 132.108 57.736 127.987 58.719C 129.003 58.006 130.077 57.535 131.161 56.929C 127.726 57.138 122.96 58.928 124.432 57.3C 118.829 59.8 108.878 63.309 103.294 68.545L103.294 68.545L103.118 67.372C 100.559 70.444 91.96 76.546 91.275 80.524L91.275 80.524L90.591 80.684C 89.259 82.938 88.398 85.494 87.342 87.813C 85.601 90.78 84.79 88.955 85.037 89.42C 81.612 96.365 79.911 102.2 78.441 106.986C 79.488 108.551 78.466 116.41 78.862 122.7C 77.142 153.763 100.663 183.922 126.372 190.886C 130.14 192.234 135.745 192.182 140.511 192.321C 134.887 190.713 134.16 191.469 128.682 189.559C 124.73 187.698 123.864 185.573 121.065 183.144L121.065 183.144L122.173 185.102C 116.683 183.159 118.98 182.698 114.514 181.283L114.514 181.283L115.697 179.738C 113.918 179.603 110.984 176.739 110.182 175.154L110.182 175.154L108.236 175.231C 105.897 172.345 104.651 170.266 104.742 168.655L104.742 168.655L104.113 169.775C 103.4 168.552 95.509 158.953 99.603 161.187C 98.842 160.492 97.831 160.055 96.735 158.064L96.735 158.064L97.569 157.111C 95.599 154.576 93.943 151.327 94.068 150.244C 95.119 151.664 95.848 151.929 96.57 152.172C 91.595 139.827 91.315 151.492 87.547 139.606L87.547 139.606L88.344 139.542C 87.733 138.622 87.362 137.622 86.87 136.641L86.87 136.641L87.217 133.183C 83.635 129.041 86.215 115.572 86.732 108.185C 87.09 105.181 89.722 101.984 91.724 96.969L91.724 96.969L90.505 96.759C 92.836 92.693 103.816 80.428 108.901 81.059C 111.364 77.965 108.412 81.048 107.93 80.268C 113.34 74.669 115.042 76.312 118.693 75.305C 122.631 72.968 115.313 76.217 117.18 74.414C 123.988 72.675 122.005 70.461 130.886 69.578C 131.823 70.111 128.712 70.402 127.931 71.093C 133.603 68.318 145.88 68.949 153.855 72.633C 163.108 76.957 173.504 89.74 173.914 101.767L173.914 101.767L174.38 101.893C 174.144 106.674 175.112 112.202 173.434 117.281L173.434 117.281L174.576 114.877C 174.711 118.531 173.507 120.304 172.422 123.442L172.422 123.442L170.469 124.418C 168.871 127.521 170.624 126.388 169.479 128.857C 166.984 131.075 161.908 135.798 160.284 136.229C 159.098 136.203 161.087 134.83 161.348 134.291C 158.008 136.584 158.669 137.734 153.561 139.127L153.561 139.127L153.411 138.795C 140.814 144.721 123.317 132.977 123.547 116.953C 123.412 117.97 123.165 117.716 122.886 118.127C 122.236 109.882 126.693 101.601 134.211 98.22C 141.564 94.58 150.185 96.074 155.452 100.982C 152.559 97.192 146.8 93.175 139.975 93.551C 133.289 93.657 127.035 97.905 124.948 102.517C 121.523 104.673 121.126 110.83 119.633 111.956C 117.625 126.714 123.41 133.09 133.196 140.59C 133.985 141.122 134.079 141.422 134.011 141.695C 134.016 141.689 134.016 141.681 134.022 141.676C 145.567 145.989 157.494 144.943 167.483 136.934C 170.024 134.955 172.801 131.588 173.603 131.541C 172.395 133.358 173.809 132.415 172.881 134.019C 175.413 129.935 171.781 132.357 175.499 126.966L175.499 126.966L176.872 128.857C 176.362 125.467 181.082 121.35 180.603 115.989C 181.686 114.349 181.811 117.753 180.662 121.525C 182.256 117.34 181.082 116.668 181.492 113.215C 181.935 114.376 182.516 115.609 182.814 116.834C 181.775 112.79 183.88 110.024 184.401 107.674C 183.888 107.446 182.798 109.462 182.549 104.685C 182.585 102.61 183.126 103.597 183.335 103.087C 182.928 102.853 181.859 101.263 181.209 98.212C 181.681 97.495 182.469 100.07 183.11 100.176C 182.698 97.75 181.987 95.901 181.958 94.04C 180.084 90.124 181.295 94.562 179.775 92.359C 177.778 86.137 181.427 90.914 181.674 88.088z" transform="matrix(0.1464844 0 0 0.1466667 0 0) matrix(0.56 0 0 0.56 85.77998 61.23998)"/><path fill="#FFF" fill-rule="nonzero" stroke="none" d="M133.974 141.803C 133.988 141.767 134 141.73 134.009 141.693C 133.983 141.721 133.973 141.759 133.974 141.803z" transform="matrix(0.1464844 0 0 0.1466667 0 0) matrix(0.56 0 0 0.56 85.77998 61.23999)"/><path fill="#FFF" fill-rule="nonzero" stroke="none" d="M118.152 132.687C 119.637 134.704 120.815 136.889 122.711 138.466C 121.347 135.803 120.333 134.703 118.469 131.103L118.469 131.103L118.152 132.687z" transform="matrix(0.1464844 0 0 0.1466667 0 0) matrix(0.56 0 0 0.56 85.77998 61.23999)"/><path fill="#FFF" fill-rule="nonzero" stroke="none" d="M121.979 130.964C 121.193 130.095 120.728 129.049 120.207 128.007C 120.705 129.839 121.725 131.413 122.674 133.014L122.674 133.014L121.979 130.964z" transform="matrix(0.1464844 0 0 0.1466667 0 0) matrix(0.56 0 0 0.56 85.77998 61.23999)"/><path fill="#FFF" fill-rule="nonzero" stroke="none" d="M179.83 130.861C 182.056 126.676 183.495 122.1 184.099 117.462L184.099 117.462L183.767 118.294C 183.159 122.618 181.845 126.896 179.83 130.861z" transform="matrix(0.1464844 0 0 0.1466667 0 0) matrix(0.56 0 0 0.56 85.77998 61.23998)"/><path fill="#FFF" fill-rule="nonzero" stroke="none" d="M140.386 55.956C 138.274 56.133 136.171 56.239 134.095 56.507L134.095 56.507L135.009 56.632C 136.537 56.072 138.765 56.325 140.386 55.956z" transform="matrix(0.1464844 0 0 0.1466667 0 0) matrix(0.56 0 0 0.56 85.77998 61.23999)"/><path fill="#FFF" fill-rule="nonzero" stroke="none" d="M81.997 87.527C 83.644 83.816 81.353 86.502 81.376 85.152C 81.728 88.411 78.924 89.676 81.997 87.527z" transform="matrix(0.1464844 0 0 0.1466667 0 0) matrix(0.56 0 0 0.56 85.77998 61.23999)"/><path fill="#FFF" fill-rule="nonzero" stroke="none" d="M78.871 95.5C 76.914 98.001 77.971 98.534 77.764 100.235C 78.472 98.062 78.601 96.757 78.871 95.5z" transform="matrix(0.1464844 0 0 0.1466667 0 0) matrix(0.56 0 0 0.56 85.77999 61.23999)"/><path fill="#FFF" fill-rule="nonzero" stroke="none" d="M212.03 248.419C 212.03 244.536 209.06 242.481 203.806 242.481C 201.293 242.481 199.847 242.633 198.857 242.786L198.857 242.786L198.857 254.74L202.665 254.74C 208.755 254.74 212.03 252.227 212.03 248.419z" transform="matrix(0.1464844 0 0 0.1466667 0 0) matrix(0.56 0 0 0.56 85.77998 61.23999)"/><path fill="#FFF" fill-rule="nonzero" stroke="none" d="M110.606 242.938C 108.017 242.938 106.342 243.166 105.352 243.394L105.352 243.394L105.352 276.973C 106.342 277.201 107.941 277.201 109.388 277.201C 119.895 277.277 126.747 271.491 126.747 259.232C 126.824 248.572 120.58 242.938 110.606 242.938z" transform="matrix(0.1464844 0 0 0.1466667 0 0) matrix(0.56 0 0 0.56 85.77998 61.23999)"/><path fill="#FFF" fill-rule="nonzero" stroke="none" d="M202.817 263.039L198.857 263.039L198.857 277.506C 200 277.658 201.37 277.658 203.349 277.658C 208.603 277.658 213.247 275.679 213.247 270.272C 213.247 265.094 208.603 263.039 202.817 263.039z" transform="matrix(0.1464844 0 0 0.1466667 0 0) matrix(0.56 0 0 0.56 85.77998 61.23997)"/><path fill="#FFF" fill-rule="nonzero" stroke="none" d="M270.826 70.55L212.17 3.66C 210.13 1.334 207.187 0 204.093 0L204.093 0L55.941 0C 49.076 0 43.51 5.566 43.51 12.431L43.51 12.431L43.51 304.57C 43.51 311.436 49.076 317.001 55.941 317.001L55.941 317.001L261.058 317.001C 267.924 317.001 273.49 311.435 273.49 304.569L273.49 304.569L273.49 77.633C 273.491 75.027 272.544 72.51 270.826 70.55zM130.555 279.638C 125.149 284.13 116.925 286.262 106.875 286.262C 100.859 286.262 96.596 285.881 93.702 285.5L93.702 285.5L93.702 235.095C 97.966 234.409 103.524 234.029 109.388 234.029C 119.134 234.029 125.453 235.781 130.403 239.511C 135.733 243.47 139.083 249.79 139.083 258.851C 139.082 268.673 135.504 275.45 130.555 279.638zM179.439 285.729L146.699 285.729L146.699 234.41L178.374 234.41L178.374 243.928L158.349 243.928L158.349 254.588L177.232 254.588L177.232 264.029L158.349 264.029L158.349 276.212L179.44 276.212L179.44 285.729zM220.101 281.618C 216.37 284.587 210.126 286.263 199.923 286.263C 194.212 286.263 189.948 285.882 187.36 285.501L187.36 285.501L187.36 235.096C 190.406 234.487 196.573 234.03 202.36 234.03C 209.441 234.03 213.781 234.716 217.512 236.924C 221.09 238.827 223.679 242.33 223.679 246.975C 223.679 251.543 221.014 255.807 215.228 257.939L215.228 257.939L215.228 258.091C 221.09 259.691 225.43 264.107 225.43 270.731C 225.43 275.374 223.298 279.029 220.101 281.618zM55.941 211.073L55.941 12.432L199.94 12.432L199.94 76.033C 199.94 79.464 202.721 82.249 206.156 82.249L206.156 82.249L261.059 82.249L261.065 211.073L55.941 211.073z" transform="matrix(0.1464844 0 0 0.1466667 0 0) matrix(0.56 0 0 0.56 85.77999 61.24)"/></g></svg>