<svg xmlns="http://www.w3.org/2000/svg" xmlns:xlink="http://www.w3.org/1999/xlink" id="body_1" width="150" height="44"><g><path fill="none" stroke="none" d="M0 0L1024 0L1024 300L0 300L0 0z" transform="matrix(0.1464844 0 0 0.1466667 0 0) matrix(1 0 0 1 0 0)"/><path fill="#000" fill-rule="nonzero" stroke="none" d="M445 201.5C 445 220.554 429.554 236 410.5 236L410.5 236L215.5 236C 196.446 236 181 220.554 181 201.5C 181 182.446 196.446 167 215.5 167L215.5 167L410.5 167C 429.554 167 445 182.446 445 201.5z" transform="matrix(0.1464844 0 0 0.1466667 0 0) matrix(3.77 0 0 3.77 -672.75 -609.655)"/><text style="fill:#fff;font-family:Times New Roman;font-weight:700" x="-134.54" y="-11.29" font-size="45" transform="matrix(0.1464844 0 0 0.1466667 0 0) matrix(1.88 0 0 1.88 612.35 145.02)">Download for</text><text style="fill:#fff;font-family:Times New Roman;font-weight:700" x="-72.63" y="39.56" font-size="45" transform="matrix(0.1464844 0 0 0.1466667 0 0) matrix(1.88 0 0 1.88 612.35 145.02)">macOS</text><path fill="#FFF" fill-rule="nonzero" stroke="none" d="M23.091 14.018L23.091 13.676L22.028 13.749C 21.727 13.768 21.501 13.832 21.349 13.94C 21.197 14.049 21.121 14.2 21.121 14.393C 21.121 14.581 21.196 14.731 21.347 14.842C 21.497 14.954 21.699 15.009 21.951 15.009C 22.112 15.009 22.263 14.984 22.402 14.935C 22.541 14.886 22.663 14.817 22.765 14.729C 22.867 14.642 22.947 14.538 23.004 14.417C 23.062 14.296 23.091 14.163 23.091 14.018zM21 0.25C 9.421 0.25 0.25 9.421 0.25 21C 0.25 32.58 9.421 41.75 21 41.75C 32.579 41.75 41.75 32.58 41.75 21C 41.75 9.421 32.58 0.25 21 0.25zM25.028 12.549C 25.126 12.274 25.264 12.038 25.443 11.842C 25.622 11.646 25.837 11.495 26.089 11.389C 26.341 11.283 26.622 11.23 26.931 11.23C 27.21 11.23 27.462 11.272 27.686 11.355C 27.911 11.438 28.103 11.55 28.264 11.691C 28.425 11.832 28.553 11.996 28.647 12.184C 28.741 12.372 28.797 12.571 28.816 12.78L28.816 12.78L27.983 12.78C 27.962 12.665 27.924 12.557 27.87 12.458C 27.816 12.359 27.745 12.273 27.657 12.2C 27.568 12.127 27.464 12.07 27.345 12.029C 27.225 11.987 27.091 11.967 26.94 11.967C 26.763 11.967 26.602 12.003 26.459 12.074C 26.315 12.145 26.192 12.246 26.09 12.376C 25.988 12.506 25.909 12.665 25.853 12.851C 25.796 13.038 25.768 13.245 25.768 13.473C 25.768 13.709 25.796 13.921 25.853 14.107C 25.909 14.294 25.989 14.451 26.093 14.58C 26.196 14.709 26.321 14.808 26.466 14.876C 26.611 14.944 26.771 14.979 26.945 14.979C 27.23 14.979 27.462 14.912 27.642 14.778C 27.822 14.644 27.938 14.448 27.992 14.19L27.992 14.19L28.826 14.19C 28.802 14.418 28.739 14.626 28.637 14.814C 28.535 15.002 28.403 15.162 28.241 15.295C 28.078 15.428 27.887 15.531 27.667 15.603C 27.447 15.675 27.205 15.712 26.942 15.712C 26.63 15.712 26.349 15.66 26.096 15.557C 25.844 15.454 25.627 15.305 25.447 15.112C 25.267 14.919 25.128 14.684 25.03 14.407C 24.932 14.13 24.883 13.819 24.883 13.472C 24.881 13.133 24.93 12.825 25.028 12.549zM13.175 11.287L14.009 11.287L14.009 12.028L14.025 12.028C 14.076 11.905 14.143 11.794 14.225 11.698C 14.307 11.601 14.401 11.519 14.509 11.45C 14.616 11.381 14.735 11.329 14.863 11.293C 14.992 11.257 15.128 11.239 15.27 11.239C 15.576 11.239 15.835 11.312 16.045 11.458C 16.256 11.604 16.406 11.814 16.494 12.088L16.494 12.088L16.515 12.088C 16.571 11.956 16.645 11.838 16.736 11.734C 16.827 11.63 16.932 11.54 17.05 11.466C 17.168 11.392 17.298 11.336 17.439 11.297C 17.58 11.258 17.728 11.239 17.884 11.239C 18.099 11.239 18.294 11.273 18.47 11.342C 18.646 11.411 18.796 11.507 18.921 11.632C 19.046 11.757 19.142 11.909 19.209 12.087C 19.276 12.265 19.31 12.463 19.31 12.681L19.31 12.681L19.31 15.662L18.44 15.662L18.44 12.89C 18.44 12.603 18.366 12.38 18.218 12.223C 18.071 12.066 17.86 11.987 17.586 11.987C 17.452 11.987 17.329 12.011 17.217 12.058C 17.106 12.105 17.009 12.171 16.929 12.256C 16.848 12.34 16.785 12.442 16.74 12.56C 16.694 12.678 16.671 12.807 16.671 12.947L16.671 12.947L16.671 15.662L15.813 15.662L15.813 12.818C 15.813 12.692 15.793 12.578 15.754 12.476C 15.715 12.374 15.66 12.287 15.587 12.214C 15.515 12.141 15.426 12.086 15.323 12.047C 15.219 12.008 15.103 11.988 14.974 11.988C 14.84 11.988 14.716 12.013 14.601 12.063C 14.487 12.113 14.389 12.182 14.307 12.27C 14.225 12.359 14.161 12.463 14.116 12.584C 14.072 12.704 14 12.836 14 12.978L14 12.978L14 15.661L13.175 15.661L13.175 11.287zM15.068 32.226C 11.243 32.226 8.844 29.568 8.844 25.326C 8.844 21.084 11.243 18.417 15.068 18.417C 18.893 18.417 21.283 21.084 21.283 25.326C 21.283 29.567 18.893 32.226 15.068 32.226zM22.15 15.651C 22.009 15.687 21.865 15.705 21.717 15.705C 21.499 15.705 21.3 15.674 21.119 15.612C 20.937 15.55 20.782 15.463 20.652 15.35C 20.522 15.237 20.42 15.101 20.348 14.941C 20.275 14.781 20.239 14.603 20.239 14.407C 20.239 14.023 20.382 13.723 20.668 13.507C 20.954 13.291 21.368 13.165 21.911 13.13L21.911 13.13L23.091 13.062L23.091 12.724C 23.091 12.472 23.011 12.279 22.851 12.148C 22.691 12.017 22.465 11.951 22.172 11.951C 22.054 11.951 21.943 11.966 21.841 11.995C 21.739 12.025 21.649 12.067 21.571 12.122C 21.493 12.177 21.428 12.243 21.378 12.32C 21.327 12.396 21.292 12.482 21.273 12.576L21.273 12.576L20.455 12.576C 20.46 12.383 20.508 12.204 20.598 12.04C 20.688 11.876 20.81 11.734 20.965 11.613C 21.12 11.492 21.301 11.398 21.511 11.331C 21.721 11.264 21.949 11.23 22.196 11.23C 22.462 11.23 22.703 11.263 22.919 11.331C 23.135 11.399 23.32 11.494 23.473 11.619C 23.626 11.744 23.744 11.894 23.827 12.07C 23.91 12.246 23.952 12.443 23.952 12.66L23.952 12.66L23.952 15.661L23.119 15.661L23.119 14.932L23.098 14.932C 23.036 15.05 22.958 15.157 22.863 15.252C 22.767 15.347 22.66 15.429 22.541 15.496C 22.421 15.563 22.291 15.615 22.15 15.651zM27.653 32.226C 24.736 32.226 22.753 30.698 22.615 28.299L22.615 28.299L24.514 28.299C 24.662 29.67 25.987 30.578 27.802 30.578C 29.543 30.578 30.794 29.67 30.794 28.429C 30.794 27.355 30.034 26.706 28.275 26.262L28.275 26.262L26.561 25.836C 24.097 25.225 22.977 24.104 22.977 22.261C 22.977 19.992 24.959 18.417 27.784 18.417C 30.544 18.417 32.47 20.001 32.544 22.279L32.544 22.279L30.664 22.279C 30.534 20.908 29.414 20.065 27.746 20.065C 26.088 20.065 24.94 20.917 24.94 22.149C 24.94 23.121 25.662 23.696 27.422 24.14L27.422 24.14L28.867 24.501C 31.618 25.168 32.748 26.252 32.748 28.197C 32.747 30.679 30.784 32.226 27.653 32.226zM15.068 20.12C 12.447 20.12 10.808 22.13 10.808 25.325C 10.808 28.511 12.447 30.521 15.068 30.521C 17.68 30.521 19.328 28.511 19.328 25.325C 19.329 22.13 17.68 20.12 15.068 20.12z" transform="matrix(0.1464844 0 0 0.1466667 0 0) matrix(4.82 0 0 4.82 109.77 48.77999)"/></g></svg>