<svg xmlns="http://www.w3.org/2000/svg" xmlns:xlink="http://www.w3.org/1999/xlink" id="body_1" width="150" height="44"><g><path fill="none" stroke="none" d="M0 0L1024 0L1024 300L0 300L0 0z" transform="matrix(0.1464844 0 0 0.1466667 0 0) matrix(1 0 0 1 0 0)"/><path fill="#000" fill-rule="nonzero" stroke="none" d="M445 201.5C 445 220.554 429.554 236 410.5 236L410.5 236L215.5 236C 196.446 236 181 220.554 181 201.5C 181 182.446 196.446 167 215.5 167L215.5 167L410.5 167C 429.554 167 445 182.446 445 201.5z" transform="matrix(0.1464844 0 0 0.1466667 0 0) matrix(3.77 0 0 3.77 -672.75 -609.655)"/><text style="fill:#fff;font-family:Times New Roman;font-weight:700" x="-154.27" y="-11.29" font-size="45" transform="matrix(0.1464844 0 0 0.1466667 0 0) matrix(1.88 0 0 1.88 601.87 145.02)">Download RPM</text><text style="fill:#fff;font-family:Times New Roman;font-weight:700" x="-87.59" y="39.56" font-size="45" transform="matrix(0.1464844 0 0 0.1466667 0 0) matrix(1.88 0 0 1.88 601.87 145.02)">Package</text><path fill="#FFF" fill-rule="nonzero" stroke="none" d="M250.246 410.875C 244.577 410.875 240.733 411.424 238.724 411.972L238.724 411.972L238.724 448.374C 241.099 448.928 244.026 449.107 248.056 449.107C 262.874 449.107 272.021 441.608 272.021 428.984C 272.02 417.646 264.152 410.875 250.246 410.875z" transform="matrix(0.1464844 0 0 0.1466667 0 0) matrix(0.34 0 0 0.34 105.044 56.36398)"/><path fill="#FFF" fill-rule="nonzero" stroke="none" d="M142.857 410.506C 136.091 410.506 132.252 411.06 130.238 411.424L130.238 411.424L130.238 445.447L141.215 445.447C 155.115 445.447 163.35 438.497 163.35 427.702C 163.345 416.359 155.667 410.695 142.857 410.506z" transform="matrix(0.1464844 0 0 0.1466667 0 0) matrix(0.34 0 0 0.34 105.044 56.36398)"/><path fill="#FFF" fill-rule="nonzero" stroke="none" d="M475.095 131.992C 475.063 129.466 474.262 126.971 472.527 124.999L472.527 124.999L366.324 3.694C 366.303 3.663 366.271 3.652 366.24 3.618C 365.607 2.911 364.88 2.328 364.099 1.814C 363.867 1.664 363.634 1.529 363.392 1.392C 362.706 1.026 361.999 0.725 361.261 0.503C 361.061 0.442 360.882 0.36 360.681 0.308C 359.87 0.119 359.047 0 358.203 0L358.203 0L97.2 0C 85.292 0 75.6 9.693 75.6 21.601L75.6 21.601L75.6 529.201C 75.6 541.114 85.292 550.802 97.2 550.802L97.2 550.802L453.6 550.802C 465.518 550.802 475.201 541.114 475.201 529.201L475.201 529.201L475.201 133.202C 475.2 132.796 475.137 132.398 475.095 131.992zM167.184 514.045C 165.17 510.565 162.243 500.502 158.588 485.325C 155.292 469.959 149.99 465.756 138.65 465.571L138.65 465.571L130.233 465.571L130.233 514.05L102.61 514.05L102.61 392.402C 111.575 390.941 124.922 389.834 139.74 389.834C 158.031 389.834 170.84 392.581 179.62 399.537C 186.937 405.391 190.958 413.986 190.958 425.324C 190.958 441.06 179.802 451.845 169.192 455.688L169.192 455.688L169.192 456.242C 177.788 459.718 182.547 467.949 185.656 479.287C 189.495 493.193 193.342 509.288 195.718 514.05L195.718 514.05L167.183 514.05L167.183 514.045zM288.299 457.523C 278.78 466.478 264.697 470.502 248.239 470.502C 244.576 470.502 241.289 470.328 238.723 469.953L238.723 469.953L238.723 514.034L211.101 514.034L211.101 392.402C 219.699 390.941 231.773 389.834 248.782 389.834C 265.976 389.834 278.237 393.135 286.464 399.717C 294.332 405.934 299.637 416.18 299.637 428.256C 299.637 440.327 295.613 450.562 288.299 457.523zM420.931 514.045L419.102 466.853C 418.548 452.035 418.004 434.11 418.004 416.18L418.004 416.18L417.456 416.18C 413.617 431.906 408.491 449.466 403.734 463.926L403.734 463.926L388.726 512.03L366.962 512.03L353.794 464.284C 349.765 449.835 345.563 432.274 342.636 416.18L342.636 416.18L342.267 416.18C 341.538 432.828 340.991 451.845 340.073 467.217L340.073 467.217L337.88 514.045L312.087 514.045L319.955 390.757L357.086 390.757L369.162 431.905C 373.001 446.18 376.845 461.542 379.587 475.991L379.587 475.991L380.141 475.991C 383.617 461.721 387.82 445.447 391.848 431.731L391.848 431.731L405.016 390.756L441.418 390.756L448.185 514.044L420.931 514.044zM97.2 366.752L97.2 21.601L347.403 21.601L347.403 132.116C 347.403 138.08 352.234 142.916 358.203 142.916L358.203 142.916L453.6 142.916L453.611 366.752L97.2 366.752z" transform="matrix(0.1464844 0 0 0.1466667 0 0) matrix(0.34 0 0 0.34 105.044 56.364)"/><path fill="#FFF" fill-rule="nonzero" stroke="none" d="M386.185 221.559C 385.985 292.017 332.781 343.085 269.985 345.885C 236.936 347.357 207.613 337.827 182.759 315.975C 154.937 291.516 141.009 260.145 140.74 223.368C 140.508 191.712 151.178 163.443 172.816 140.056C 198.25 112.581 229.938 99.258 267.522 100.215C 331.688 101.852 385.251 154.359 386.185 221.559zM325.477 204.845C 325.477 203.257 325.424 202.237 325.488 201.222C 325.53 200.681 325.789 200.157 325.921 199.616C 328.257 189.923 328.91 180.334 324.803 170.842C 321.006 162.083 317.673 153.118 313.74 144.425C 311.789 140.106 309.679 135.413 306.346 132.265C 298.014 124.408 287.329 124.365 276.857 126.066C 270.99 127.015 265.271 128.787 259.244 128.144C 251.349 127.308 243.482 126.077 235.566 125.568C 228.832 125.14 221.689 130.435 219.727 136.877C 217.309 144.832 215.007 152.835 212.972 160.89C 210.984 168.768 212.55 173.283 219.846 177.14C 227.53 181.211 235.993 183.861 244.222 186.832C 250.276 189.018 256.588 190.487 262.608 192.733C 266.561 194.207 269.719 196.674 269.614 201.822C 269.543 205.149 270.806 208.253 273.226 210.85C 274.236 211.931 274.603 213.611 275.267 215.014C 275.04 215.41 274.814 215.802 274.586 216.193C 270.984 215.94 267.219 216.285 263.808 215.333C 244.81 210.057 226.936 202.142 210.422 191.357C 208.679 190.223 207.258 187.657 206.891 185.559C 206.329 182.345 206.324 178.851 207.025 175.693C 207.679 172.766 206.561 172.452 204.407 172.592C 197.786 173.009 191.155 173.312 184.563 173.982C 177.309 174.715 171.445 178.064 167.39 184.263C 165.536 187.092 164.867 190.143 166.881 193.064C 169.538 196.914 172.072 200.988 175.413 204.183C 182.229 210.696 189.14 217.241 196.76 222.738C 205.582 229.116 214.969 234.83 224.57 239.959C 232.082 243.967 240.24 246.812 248.221 249.889C 258.633 253.902 269.423 256.565 280.521 257.849C 285.536 258.427 290.567 259.141 295.598 259.252C 303.001 259.42 310.448 259.508 317.809 258.891C 326.98 258.123 334.948 253.583 342.985 249.496C 353.474 244.17 360.756 236.399 363.393 224.5C 365.081 216.885 364.828 209.779 358.109 205.162C 350.732 200.086 342.917 195.451 334.051 193.07C 332.606 197.847 331.119 202.5 325.477 204.845zM150.881 268.094C 171.331 313.364 205.606 340.242 254.831 344.039C 297.189 347.309 332.479 330.813 359.802 296.684C 356.548 296.684 354.08 296.737 351.612 296.674C 344.493 296.494 337.374 296.22 330.25 296.141C 329.681 296.136 328.488 297.56 328.62 298.045C 329.411 300.992 327.925 302.432 325.557 303.539C 317.71 307.21 310.523 311.776 304.389 318.01C 302.517 319.913 299.875 321.227 297.36 322.25C 296.169 322.734 294.449 321.917 292.967 321.69C 293.268 320.367 293.194 318.769 293.921 317.756C 299.232 310.446 304.722 303.259 310.121 296.024C 310.98 294.87 312.088 293.71 312.41 292.391C 314.124 285.272 315.658 278.105 317.187 270.933C 317.556 269.227 317.024 267.991 314.946 268.067C 313.812 268.115 312.684 268.18 311.555 268.186C 308.791 268.207 306.018 268.331 303.26 268.186C 297.822 267.888 292.412 266.258 287.002 268.655C 285.842 269.175 284.207 268.769 282.819 268.613C 279.84 268.268 276.877 267.458 273.91 267.458C 267.017 267.458 260.107 268.247 253.249 267.872C 249.803 267.695 245.855 266.44 243.206 264.33C 238.215 260.365 233.933 255.489 229.495 250.856C 227.794 249.079 226.234 248.465 223.863 249.554C 220.601 251.062 218.334 249.631 216.206 246.904C 213.337 243.231 210.126 239.808 206.814 236.508C 204.805 234.517 202.231 234.029 199.423 235.239C 195.956 236.723 192.813 238.551 192.865 242.828C 192.91 246.735 193.904 250.345 196.549 253.562C 199.573 257.246 201.986 261.364 206.226 264.012C 207.128 264.574 207.597 267.026 207.16 268.175C 206.725 269.324 204.979 270.464 203.65 270.701C 200.331 271.281 197.23 270.53 194.664 268.001C 191.851 265.227 188.969 262.506 185.934 259.988C 184.642 258.915 182.925 257.797 181.359 257.72C 176.273 257.509 171.163 257.791 166.066 257.833C 161.924 257.87 157.789 257.838 152.938 257.838C 146.857 257.505 147.878 260.065 150.881 268.094z" transform="matrix(0.1464844 0 0 0.1466667 0 0) matrix(0.34 0 0 0.34 105.044 56.36398)"/><path fill="#FFF" fill-rule="nonzero" stroke="none" d="M227.965 145.677C 230.122 147.027 231.907 147.783 233.225 149.036C 236.935 152.551 241.515 152.691 245.873 151.812C 251.342 150.71 256.267 152.179 261.306 153.539C 261.868 153.689 262.651 154.71 262.569 155.203C 262.429 156.044 261.852 157.244 261.172 157.481C 258.685 158.367 256.112 159.095 253.512 159.543C 249.889 160.181 246.208 160.45 242.572 161.012C 241.396 161.197 240.03 161.536 239.192 162.288C 234.499 166.509 231.108 162.217 227.789 160.273C 224.034 158.079 223.91 153.787 224.678 149.948C 224.991 148.408 226.769 147.166 227.965 145.677z" transform="matrix(0.1464844 0 0 0.1466667 0 0) matrix(0.34 0 0 0.34 105.044 56.36399)"/><path fill="#FFF" fill-rule="nonzero" stroke="none" d="M277.805 132.912C 281.855 131.048 286.084 130.562 290.424 131.161C 292.276 131.414 294.184 131.676 295.898 132.377C 298.466 133.418 300.217 135.158 300.281 138.344C 300.328 141.437 298.003 142.323 296.041 142.8C 292.813 143.57 289.407 143.596 286.074 143.813C 285.568 143.847 285.019 143.199 284.092 142.61C 286.022 140.946 287.678 139.52 289.566 137.896C 286.506 133.803 281.712 134.645 277.805 132.912z" transform="matrix(0.1464844 0 0 0.1466667 0 0) matrix(0.34 0 0 0.34 105.044 56.36399)"/><path fill="#FFF" fill-rule="nonzero" stroke="none" d="M282.266 292.412C 278.96 291.252 275.643 290.102 272.339 288.942C 272.128 288.869 271.943 288.647 271.737 288.636C 269.789 288.531 267.563 288.72 268.249 285.641C 268.829 283.036 271.711 281.222 274.116 281.992C 275.695 282.488 277.299 283.052 278.701 283.906C 281.227 285.451 283.315 285.725 285.556 283.258C 286.2 282.546 288.91 282.436 289.058 282.773C 289.764 284.36 290.629 286.449 290.122 287.888C 288.916 291.273 285.81 292.128 282.266 292.412z" transform="matrix(0.1464844 0 0 0.1466667 0 0) matrix(0.34 0 0 0.34 105.044 56.364)"/></g></svg>