<?xml version="1.0" standalone="no"?>
<!DOCTYPE svg PUBLIC "-//W3C//DTD SVG 1.0//EN" "http://www.w3.org/TR/2001/REC-SVG-20010904/DTD/svg10.dtd">
<svg xmlns="http://www.w3.org/2000/svg" xmlns:xlink="http://www.w3.org/1999/xlink" id="body_1" width="150" height="44">

<g transform="matrix(0.1464844 0 0 0.1466667 0 0)">
	<g transform="matrix(1 0 0 1 0 0)">
	</g>
    <path transform="matrix(1 0 0 1 0 0)"  d="M0 0L1024 0L1024 300L0 300L0 0z" stroke="none" fill="none" />
	<g transform="matrix(3.77 0 0 3.77 -672.75 -609.655)">
	</g>
    <path transform="matrix(3.77 0 0 3.77 -672.75 -609.655)"  d="M445 201.5C 445 220.554 429.554 236 410.5 236L410.5 236L215.5 236C 196.446 236 181 220.554 181 201.5C 181 182.446 196.446 167 215.5 167L215.5 167L410.5 167C 429.554 167 445 182.446 445 201.5z" stroke="none" fill="#000000" fill-rule="nonzero" />
	<text transform="matrix(1.88 0 0 1.88 601.87 145.02)" x="0" y="0" style="fill:#FFFFFF;font-family:Times New Roman;font-weight:bold;" font-size="45">

	</text>
	<text transform="matrix(1.88 0 0 1.88 601.87 145.02)" x="-156.61" y="-11.29" style="fill:#FFFFFF;font-family:Times New Roman;font-weight:bold;" font-size="45">
Download Snap
	</text>
	<text transform="matrix(1.88 0 0 1.88 601.87 145.02)" x="132.1107" y="-11.29" style="fill:#FFFFFF;font-family:Times New Roman;font-weight:bold;" font-size="45">

	</text>
	<text transform="matrix(1.88 0 0 1.88 601.87 145.02)" x="-87.59" y="39.56" style="fill:#FFFFFF;font-family:Times New Roman;font-weight:bold;" font-size="45">
Package
	</text>
	<g transform="matrix(7.12 0 0 7.12 106.03 64.56)">
	</g>
    <path transform="matrix(7.12 0 0 7.12 106.03 64.56)"  d="M13.804 13.367L13.804 5.69L19.096 8.052L13.804 13.367zM3.701 23.514L10.191 11.294L13.038 14.137L3.7 23.514zM0 0.486L13.355 5.334L13.355 13.818L0 0.486zM21.803 5.334L14.11 5.334L24 9.748z" stroke="none" fill="#FFFFFF" fill-rule="nonzero" />
</g>
</svg>