<?xml version="1.0" standalone="no"?>
<!DOCTYPE svg PUBLIC "-//W3C//DTD SVG 1.0//EN" "http://www.w3.org/TR/2001/REC-SVG-20010904/DTD/svg10.dtd">
<svg xmlns="http://www.w3.org/2000/svg" xmlns:xlink="http://www.w3.org/1999/xlink" id="body_1" width="150" height="44">

<g transform="matrix(0.1464844 0 0 0.1466667 0 0)">
	<g transform="matrix(1 0 0 1 0 0)">
	</g>
    <path transform="matrix(1 0 0 1 0 0)"  d="M0 0L1024 0L1024 300L0 300L0 0z" stroke="none" fill="none" />
	<g transform="matrix(3.77 0 0 3.77 -672.75 -609.655)">
	</g>
    <path transform="matrix(3.77 0 0 3.77 -672.75 -609.655)"  d="M445 201.5C 445 220.554 429.554 236 410.5 236L410.5 236L215.5 236C 196.446 236 181 220.554 181 201.5C 181 182.446 196.446 167 215.5 167L215.5 167L410.5 167C 429.554 167 445 182.446 445 201.5z" stroke="none" fill="#000000" fill-rule="nonzero" />
	<text transform="matrix(1.88 0 0 1.88 612.35 145.02)" x="0" y="0" style="fill:#FFFFFF;font-family:Times New Roman;font-weight:bold;" font-size="45">

	</text>
	<text transform="matrix(1.88 0 0 1.88 612.35 145.02)" x="-134.54" y="-11.29" style="fill:#FFFFFF;font-family:Times New Roman;font-weight:bold;" font-size="45">
Download for
	</text>
	<text transform="matrix(1.88 0 0 1.88 612.35 145.02)" x="116.6514" y="-11.29" style="fill:#FFFFFF;font-family:Times New Roman;font-weight:bold;" font-size="45">

	</text>
	<text transform="matrix(1.88 0 0 1.88 612.35 145.02)" x="-73.41" y="39.56" style="fill:#FFFFFF;font-family:Times New Roman;font-weight:bold;" font-size="45">
Ubuntu
	</text>
	<g transform="matrix(0.44 0 0 0.44 93.97758 41.44759)">
	</g>
    <path transform="matrix(0.44 0 0 0.44 93.97758 41.44759)"  d="M168.839 241.198C 168.839 203.081 186.733 169.148 214.524 147.302L214.524 147.302L171.988 79.22C 136.34 104.823 109.516 141.88 96.861 185.016C 116.672 197.767 129.81 220.047 129.81 245.369C 129.81 269.793 117.667 291.326 99.027 304.287C 112.633 345.147 139.147 380.125 173.733 404.4L173.733 404.4L213.292 334.042C 186.187 312.204 168.839 278.724 168.839 241.198z" stroke="none" fill="#FFFFFF" fill-rule="nonzero" />
	<g transform="matrix(0.44 0 0 0.44 93.9732 41.44318)">
	</g>
    <path transform="matrix(0.44 0 0 0.44 93.9732 41.44318)"  d="M109.704 245.368C 109.704 273.852 86.572 296.96 58.095 296.96C 29.604 296.96 6.489 273.853 6.489 245.368C 6.489 216.898 29.604 193.791 58.095 193.791C 86.572 193.791 109.704 216.898 109.704 245.368z" stroke="none" fill="#FFFFFF" fill-rule="nonzero" />
	<g transform="matrix(0.44 0 0 0.44 93.97758 41.44757)">
	</g>
    <path transform="matrix(0.44 0 0 0.44 93.97758 41.44757)"  d="M399.494 370.126C 411.496 370.126 422.795 373.062 432.724 378.275C 463.648 345.684 483.63 302.68 486.935 255.047L486.935 255.047L406.787 253.496C 400.616 313.607 349.833 360.437 288.11 360.437C 271.026 360.437 254.722 356.843 240.009 350.344L240.009 350.344L200.168 420.048C 226.728 433.117 256.544 440.459 288.109 440.459C 301.731 440.459 315.09 439.08 327.963 436.453C 330.709 399.381 361.68 370.126 399.494 370.126z" stroke="none" fill="#FFFFFF" fill-rule="nonzero" />
	<g transform="matrix(0.44 0 0 0.44 93.97318 41.44759)">
	</g>
    <path transform="matrix(0.44 0 0 0.44 93.97318 41.44759)"  d="M451.071 441.847C 451.071 470.325 427.987 493.423 399.494 493.423C 371.001 493.423 347.9 470.325 347.9 441.847C 347.9 413.347 371.001 390.255 399.494 390.255C 427.987 390.255 451.071 413.347 451.071 441.847z" stroke="none" fill="#FFFFFF" fill-rule="nonzero" />
	<g transform="matrix(0.44 0 0 0.44 93.97758 41.44319)">
	</g>
    <path transform="matrix(0.44 0 0 0.44 93.97758 41.44319)"  d="M438.211 110.152C 426.534 118.421 412.243 123.315 396.812 123.315C 357.175 123.315 325.082 91.213 325.082 51.6C 325.082 49.496 325.176 47.461 325.332 45.419C 313.282 43.112 300.829 41.928 288.11 41.928C 256.251 41.928 226.122 49.426 199.421 62.705L199.421 62.705L239.028 132.455C 254.007 125.707 270.621 121.911 288.11 121.911C 349.287 121.911 399.711 167.985 406.601 227.325L406.601 227.325L486.748 224.878C 483.209 181.12 465.487 141.372 438.211 110.152z" stroke="none" fill="#FFFFFF" fill-rule="nonzero" />
	<g transform="matrix(0.44 0 0 0.44 93.97758 41.4432)">
	</g>
    <path transform="matrix(0.44 0 0 0.44 93.97758 41.4432)"  d="M448.374 51.601C 448.374 80.093 425.336 103.193 396.813 103.193C 368.322 103.193 345.221 80.093 345.221 51.601C 345.22 23.107 368.321 0 396.812 0C 425.335 0 448.374 23.107 448.374 51.601z" stroke="none" fill="#FFFFFF" fill-rule="nonzero" />
</g>
</svg>