<svg xmlns="http://www.w3.org/2000/svg" xmlns:xlink="http://www.w3.org/1999/xlink" id="body_1" width="150" height="44"><g><path fill="none" stroke="none" d="M0 0L1024 0L1024 300L0 300L0 0z" transform="matrix(0.1464844 0 0 0.1466667 0 0) matrix(1 0 0 1 0 0)"/><path fill="#000" fill-rule="nonzero" stroke="none" d="M445 201.5C 445 220.554 429.554 236 410.5 236L410.5 236L215.5 236C 196.446 236 181 220.554 181 201.5C 181 182.446 196.446 167 215.5 167L215.5 167L410.5 167C 429.554 167 445 182.446 445 201.5z" transform="matrix(0.1464844 0 0 0.1466667 0 0) matrix(3.77 0 0 3.77 -672.75 -609.655)"/><text style="fill:#fff;font-family:Times New Roman;font-weight:700" x="-134.54" y="-11.29" font-size="45" transform="matrix(0.1464844 0 0 0.1466667 0 0) matrix(1.88 0 0 1.88 612.35 145.02)">Download for</text><text style="fill:#fff;font-family:Times New Roman;font-weight:700" x="-91.58" y="39.56" font-size="45" transform="matrix(0.1464844 0 0 0.1466667 0 0) matrix(1.88 0 0 1.88 612.35 145.02)">Windows</text><path fill="#FFF" fill-rule="nonzero" stroke="none" d="M139.999 25.775L139.999 142.499C 139.999 143.88 141.118 144.999 142.499 144.999L142.499 144.999L302.46 144.999C 303.841 144.999 304.96 143.88 304.96 142.499L304.96 142.499L304.96 2.5C 304.96 1.774 304.645 1.084 304.096 0.609C 303.548 0.134 302.821 -0.078 302.1 0.026L302.1 0.026L142.139 23.301C 140.91 23.48 139.999 24.534 139.999 25.775z" transform="matrix(0.1464844 0 0 0.1466667 0 0) matrix(0.62 0 0 0.62 107.31 55.03999)"/><path fill="#FFF" fill-rule="nonzero" stroke="none" d="M122.501 279.948C 123.102 279.948 123.687 279.732 124.145 279.332C 124.689 278.857 125.001 278.17 125.001 277.448L125.001 277.448L125.001 162.5C 125.001 161.119 123.882 160 122.501 160L122.501 160L2.592 160C 1.929 160 1.293 160.263 0.824 160.732C 0.355 161.201 0.092 161.837 0.092 162.5L0.092 162.5L0.098 261.015C 0.098 262.265 1.021 263.322 2.258 263.492L2.258 263.492L122.161 279.926C 122.274 279.94 122.388 279.948 122.501 279.948z" transform="matrix(0.1464844 0 0 0.1466667 0 0) matrix(0.62 0 0 0.62 107.3038 55.03998)"/><path fill="#FFF" fill-rule="nonzero" stroke="none" d="M2.609 144.999L122.501 144.999C 123.882 144.999 125.001 143.88 125.001 142.499L125.001 142.499L125.001 28.681C 125.001 27.959 124.689 27.273 124.146 26.798C 123.603 26.323 122.885 26.105 122.165 26.204L122.165 26.204L2.164 42.5C 0.923 42.669 -0.001 43.728 0 44.98L0 44.98L0.109 142.501C 0.111 143.881 1.23 144.999 2.609 144.999z" transform="matrix(0.1464844 0 0 0.1466667 0 0) matrix(0.62 0 0 0.62 107.31 55.03999)"/><path fill="#FFF" fill-rule="nonzero" stroke="none" d="M302.46 305C 303.059 305 303.642 304.785 304.1 304.387C 304.646 303.912 304.96 303.224 304.96 302.5L304.96 302.5L305 162.5C 305 161.837 304.737 161.201 304.268 160.732C 303.799 160.263 303.163 160 302.5 160L302.5 160L142.499 160C 141.118 160 139.999 161.119 139.999 162.5L139.999 162.5L139.999 279.996C 139.999 281.242 140.917 282.298 142.15 282.472L142.15 282.472L302.111 304.976C 302.228 304.992 302.344 305 302.46 305z" transform="matrix(0.1464844 0 0 0.1466667 0 0) matrix(0.62 0 0 0.62 107.31 55.03998)"/></g></svg>